<?xml version="1.0" standalone="no"?>
<!DOCTYPE svg PUBLIC "-//W3C//DTD SVG 20010904//EN"
 "http://www.w3.org/TR/2001/REC-SVG-20010904/DTD/svg10.dtd">
<svg version="1.0" xmlns="http://www.w3.org/2000/svg"
 width="721.000000pt" height="167.000000pt" viewBox="0 0 721.000000 167.000000"
 preserveAspectRatio="xMidYMid meet">

<g transform="translate(0.000000,167.000000) scale(0.100000,-0.100000)"
fill="#000000" stroke="none">
<path d="M3740 1536 c-255 -46 -404 -173 -403 -341 1 -75 24 -125 86 -182 57
-52 85 -67 194 -98 65 -19 121 -28 215 -32 219 -10 375 29 474 120 30 27 52
52 49 56 -4 3 -21 11 -38 17 -29 10 -36 7 -90 -33 -86 -63 -173 -87 -290 -80
-119 6 -159 20 -213 69 -60 56 -78 106 -72 212 6 113 37 167 123 211 52 27 68
30 144 30 67 -1 97 -6 138 -24 49 -22 121 -88 166 -155 15 -21 25 -26 50 -24
l32 3 1 85 c1 47 -1 102 -3 123 -5 36 -6 37 -47 37 -23 0 -47 -5 -53 -11 -8
-8 -31 -6 -85 6 -96 23 -282 28 -378 11z"/>
<path d="M4704 1516 c-12 -31 4 -43 61 -51 97 -12 95 -6 95 -285 0 -274 5
-260 -94 -260 -53 0 -56 -1 -56 -24 0 -29 -2 -28 225 -46 211 -17 534 -54 700
-80 33 -5 63 -6 66 -2 4 4 9 59 11 122 l3 115 -27 3 c-22 3 -38 -9 -90 -63
-75 -79 -100 -87 -232 -75 -223 21 -220 19 -224 172 l-4 114 74 -4 c101 -5
155 -32 188 -94 22 -42 29 -48 58 -48 l33 0 -3 153 -3 152 -35 3 c-31 2 -37
-2 -50 -30 -28 -59 -60 -73 -161 -72 -50 1 -93 5 -97 9 -4 3 -7 57 -7 118 l0
112 130 -2 c116 -3 135 -6 183 -29 29 -14 69 -45 89 -70 30 -36 43 -44 70 -44
l33 0 0 94 c0 52 -4 97 -8 100 -4 2 -156 7 -337 10 -182 4 -387 9 -458 12
-109 5 -128 3 -133 -10z"/>
<path d="M2115 1509 c-165 -5 -305 -11 -312 -14 -7 -2 -13 -15 -13 -28 0 -22
6 -25 51 -30 86 -10 135 -43 277 -181 l134 -131 -34 -29 c-18 -16 -89 -79
-156 -140 -136 -122 -173 -148 -245 -172 -43 -14 -48 -19 -45 -42 4 -32 -2
-32 173 -3 72 12 155 25 185 29 50 7 55 9 58 35 3 26 2 27 -47 27 -27 0 -53 5
-57 11 -6 11 207 229 224 229 17 -1 184 -172 176 -180 -6 -6 -39 -16 -74 -23
-59 -12 -65 -15 -65 -37 0 -31 -9 -31 270 -2 116 13 248 26 295 30 82 7 85 8
85 32 0 24 -4 25 -65 31 -36 3 -83 15 -105 26 -37 19 -136 100 -265 216 l-51
46 83 66 c178 141 274 195 343 195 20 0 25 5 25 25 l0 25 -207 -2 -208 -3 0
-25 c0 -23 5 -25 50 -30 35 -3 50 -9 50 -20 0 -15 -173 -170 -191 -170 -14 0
-154 144 -154 159 0 11 17 17 90 29 39 6 45 11 45 31 0 14 -4 25 -10 26 -5 1
-145 -2 -310 -6z"/>
<path d="M6082 1465 c3 -26 9 -30 58 -43 92 -23 86 -3 94 -340 4 -163 4 -305
1 -315 -6 -14 -20 -17 -77 -17 l-69 0 3 -27 c3 -25 9 -29 58 -39 30 -7 145
-31 255 -54 110 -23 298 -67 418 -97 120 -30 220 -53 222 -51 1 1 8 71 13 153
10 135 9 151 -5 163 -31 23 -50 13 -86 -47 -38 -61 -108 -131 -131 -131 -7 0
-52 7 -99 15 -110 19 -194 50 -209 78 -18 32 -25 652 -8 672 7 8 27 15 45 15
18 0 47 3 64 6 26 5 31 11 31 34 0 25 -4 28 -43 33 -23 3 -154 9 -291 13
l-248 7 4 -28z"/>
<path d="M995 1469 c-343 -15 -511 -26 -523 -33 -7 -4 -12 -20 -12 -36 0 -27
3 -29 48 -36 26 -3 59 -13 75 -21 l27 -14 0 -378 c0 -434 5 -409 -95 -455 -48
-22 -55 -28 -55 -54 0 -16 2 -31 6 -34 3 -3 26 1 52 9 174 52 533 144 801 205
123 27 117 18 127 191 l7 107 -26 0 c-30 0 -33 -3 -93 -95 -55 -83 -89 -122
-127 -141 -42 -22 -216 -64 -265 -64 -37 0 -44 4 -53 26 -5 15 -8 92 -7 172
l3 146 30 8 c17 5 60 10 97 11 58 2 70 -1 92 -22 14 -13 33 -44 42 -67 15 -40
19 -43 43 -37 14 3 29 8 34 10 4 2 7 87 7 189 l0 184 -29 0 c-27 0 -33 -7 -60
-64 -41 -84 -77 -107 -198 -122 l-53 -7 0 172 0 171 95 1 c195 2 185 3 236
-31 24 -16 57 -48 74 -70 25 -34 34 -40 60 -38 l30 3 3 113 3 112 -108 -2
c-59 0 -189 -5 -288 -9z"/>
<path d="M1648 404 c-35 -19 -48 -43 -48 -92 0 -33 6 -45 31 -66 39 -34 106
-36 140 -5 26 22 23 22 -43 -4 -51 -21 -118 30 -118 89 0 9 13 29 29 45 22 22
39 29 68 29 22 0 44 -5 50 -11 6 -6 17 -9 25 -7 20 7 -46 38 -79 38 -15 -1
-40 -7 -55 -16z"/>
<path d="M2450 320 l0 -100 40 0 c27 0 47 7 60 20 25 25 25 41 0 73 -13 16
-16 28 -10 32 15 9 12 41 -6 59 -8 9 -31 16 -50 16 l-34 0 0 -100z m75 50 c0
-21 -5 -26 -32 -28 -31 -3 -33 -1 -33 28 0 29 2 31 33 28 27 -2 32 -7 32 -28z
m9 -63 c24 -18 17 -48 -15 -66 -39 -22 -59 -9 -59 39 0 37 2 40 28 40 16 0 36
-6 46 -13z"/>
<path d="M2810 321 c0 -56 4 -101 9 -101 5 0 9 43 9 95 0 52 -4 97 -9 101 -5
3 -9 -37 -9 -95z"/>
<path d="M3220 343 l-1 -78 -69 75 -69 75 -1 -97 c0 -59 4 -98 10 -98 6 0 10
32 10 76 l0 75 66 -75 c37 -42 68 -76 70 -76 2 0 4 45 4 100 0 60 -4 100 -10
100 -6 0 -10 -33 -10 -77z"/>
<path d="M3490 320 l0 -100 63 2 62 2 -52 3 -53 4 0 45 0 44 45 0 c25 0 45 5
45 10 0 6 -20 10 -45 10 -43 0 -45 1 -45 30 0 29 2 30 44 30 25 0 48 5 51 10
4 6 -17 10 -54 10 l-61 0 0 -100z"/>
<path d="M3825 410 c3 -5 15 -10 26 -10 17 0 19 -8 19 -90 0 -53 4 -90 10 -90
6 0 10 37 10 90 0 83 1 90 20 90 11 0 20 5 20 10 0 6 -25 10 -56 10 -34 0 -53
-4 -49 -10z"/>
<path d="M4166 398 c-18 -25 -12 -40 38 -86 41 -38 45 -57 15 -72 -16 -9 -26
-8 -45 5 -25 16 -33 8 -12 -13 29 -29 98 -1 98 40 0 9 -21 34 -47 55 -35 30
-45 44 -40 58 6 14 15 16 43 12 30 -5 34 -4 24 8 -18 22 -57 18 -74 -7z"/>
<path d="M5060 320 c0 -60 4 -100 10 -100 6 0 10 40 10 100 0 60 -4 100 -10
100 -6 0 -10 -40 -10 -100z"/>
<path d="M5480 351 c0 -39 -4 -72 -8 -75 -4 -3 -35 26 -68 64 -32 38 -61 70
-64 70 -3 0 -5 -43 -6 -95 -1 -113 14 -128 18 -18 l3 77 68 -77 67 -78 0 101
c0 55 -2 100 -5 100 -3 0 -5 -31 -5 -69z"/>
<path d="M5788 404 c-57 -31 -66 -107 -19 -155 37 -36 105 -41 142 -9 29 24
21 25 -25 4 -57 -28 -118 2 -131 63 -6 28 -2 38 23 63 23 23 39 30 69 30 22 0
44 -5 50 -11 6 -6 17 -9 25 -7 20 7 -46 38 -79 38 -15 -1 -40 -7 -55 -16z"/>
<path d="M2091 371 c-39 -76 -70 -151 -62 -151 4 0 16 16 27 35 17 32 23 35
61 35 40 0 45 -3 60 -35 28 -58 34 -39 7 21 -33 76 -63 134 -69 134 -3 0 -14
-17 -24 -39z m44 -31 l16 -30 -36 0 -36 0 16 30 c9 17 18 30 20 30 2 0 11 -13
20 -30z"/>
</g>
</svg>
